<?xml version="1.0" encoding="UTF-8"?>
<svg id="o-icon" width="135.429" height="192.783" viewBox="0 0 135.429 192.783" version="1.1" xmlns="http://www.w3.org/2000/svg" xmlns:xlink="http://www.w3.org/1999/xlink">
    <path d="M 95.059 2.819 A 61.153 61.153 0 0 0 76.035 0.009 Q 42.499 0.009 21.251 28.681 A 96.095 96.095 0 0 0 19.561 31.035 Q 0.003 59.161 0.003 101.897 A 184.39 184.39 0 0 0 0.274 111.998 Q 2.116 145.571 16.515 167.561 A 70.007 70.007 0 0 0 22.513 175.484 A 48.448 48.448 0 0 0 60.419 192.777 Q 79.107 192.777 93.955 183.177 Q 108.803 173.577 118.787 155.145 Q 126.723 140.553 131.075 121.865 Q 135.427 103.177 135.427 84.489 A 181.462 181.462 0 0 0 134.296 63.585 Q 132.93 51.832 129.915 42.157 A 73.327 73.327 0 0 0 120.195 21.769 A 48.428 48.428 0 0 0 95.059 2.819 Z M 64.515 173.321 Q 84.483 173.321 95.619 150.665 Q 106.755 128.009 106.755 91.145 A 255.667 255.667 0 0 0 106.114 72.338 Q 104.793 54.501 100.75 43.003 A 53.074 53.074 0 0 0 98.179 36.873 A 34.137 34.137 0 0 0 91.276 27.284 Q 84.226 20.577 73.67 19.818 A 38.367 38.367 0 0 0 70.915 19.721 Q 53.405 19.721 41.962 38.713 A 69.604 69.604 0 0 0 40.451 41.353 A 87.693 87.693 0 0 0 32.453 62.59 Q 28.675 78.081 28.675 97.801 Q 28.675 130.825 38.275 152.073 Q 43.6 163.859 51.091 169.107 A 22.856 22.856 0 0 0 64.515 173.321 Z" fill="#000000" fill-rule="evenodd" />
</svg>
