<?xml version="1.0" encoding="UTF-8"?>
<svg id="o-icon" viewBox="0 0 142.852 192.777" width="142.852" height="192.777" version="1.1" xmlns="http://www.w3.org/2000/svg" xmlns:xlink="http://www.w3.org/1999/xlink">
  <path d="M 100.731 2.715 A 66.972 66.972 0 0 0 81.156 0.004 A 89.646 89.646 0 0 0 80.54 0.006 Q 61.166 0.139 45.726 8.659 A 76.015 76.015 0 0 0 22.532 28.932 A 95.978 95.978 0 0 0 21.458 30.336 Q 0.004 58.958 0.004 103.428 A 178.628 178.628 0 0 0 0.442 116.14 Q 2.705 147.845 16.644 168.324 A 69.254 69.254 0 0 0 19.046 171.641 Q 35.336 192.772 62.468 192.772 Q 82.436 192.772 98.18 183.172 Q 113.924 173.572 124.676 154.628 Q 133.38 139.78 138.116 120.196 Q 142.852 100.612 142.852 81.156 A 163.076 163.076 0 0 0 141.993 63.982 Q 140.737 52.145 137.647 42.392 A 69.648 69.648 0 0 0 126.852 20.996 A 50.718 50.718 0 0 0 100.731 2.715 Z M 69.636 167.172 A 22.138 22.138 0 0 0 86.977 158.872 Q 89.933 155.452 92.38 150.624 A 59.584 59.584 0 0 0 94.084 146.948 Q 102.572 126.931 102.659 91.868 A 293.372 293.372 0 0 0 102.66 91.14 Q 102.66 57.092 95.748 41.604 A 31.497 31.497 0 0 0 90.899 33.773 A 21.919 21.919 0 0 0 73.476 26.116 A 22.776 22.776 0 0 0 56.365 33.862 Q 52.064 38.432 48.644 45.7 Q 41.948 59.929 40.117 80.982 A 194.404 194.404 0 0 0 39.428 97.796 A 204.489 204.489 0 0 0 40.282 117.109 Q 42.032 135.5 47.364 148.228 Q 51.588 158.311 57.625 163.028 A 18.998 18.998 0 0 0 69.636 167.172 Z" fill="#000000" fill-rule="evenodd" />
</svg>
