<?xml version="1.0" encoding="UTF-8"?>
<svg id="x-icon" viewBox="0 0 157.696 211.456" width="157.696" height="211.456" version="1.1" xmlns="http://www.w3.org/2000/svg" xmlns:xlink="http://www.w3.org/1999/xlink">
  <path d="M 149.295 196.623 Q 147.351 198.296 145.018 200.022 A 99.379 99.379 0 0 1 142.08 202.112 Q 135.168 206.848 125.696 211.456 Q 114.688 187.136 104.32 166.4 Q 93.952 145.664 83.712 127.232 Q 64.256 150.784 49.792 167.04 Q 35.328 183.296 20.224 198.656 Q 15.104 195.328 9.216 189.696 Q 4.708 185.384 1.701 181.522 A 46.783 46.783 0 0 1 0 179.2 A 6962.591 6962.591 0 0 0 14.412 162.522 Q 30.948 143.319 40.051 132.384 A 651.697 651.697 0 0 0 44.928 126.464 Q 56.576 112.128 66.56 98.56 Q 53.76 78.08 39.552 59.392 Q 25.344 40.704 8.704 22.528 Q 17.408 14.848 27.008 8.96 Q 36.608 3.072 45.312 0 Q 59.136 18.176 70.656 34.944 Q 82.176 51.712 92.416 68.096 Q 104.448 50.688 113.664 35.712 Q 122.88 20.736 130.816 5.888 Q 137.984 9.472 145.408 15.744 Q 152.832 22.016 157.696 28.928 Q 147.2 45.568 135.04 62.208 Q 122.88 78.848 108.8 96.768 Q 120.32 117.504 131.2 141.056 Q 142.08 164.608 153.088 193.024 A 49.868 49.868 0 0 1 149.295 196.623 Z" fill="#000000" fill-rule="nonzero" />
</svg>
