<?xml version="1.0" encoding="UTF-8"?>
<svg id="x-icon" viewBox="0 0 151.808 206.848" width="151.808" height="206.848" version="1.1" xmlns="http://www.w3.org/2000/svg" xmlns:xlink="http://www.w3.org/1999/xlink">
    <path d="M 147.456 193.024 Q 144.128 196.608 138.88 200.192 Q 133.632 203.776 127.488 206.848 Q 115.2 178.688 104.448 156.8 Q 93.696 134.912 83.456 116.736 Q 66.048 138.496 49.536 157.184 Q 33.024 175.872 14.592 194.304 Q 10.496 191.744 6.4 187.776 A 56.551 56.551 0 0 1 3.368 184.615 Q 1.93 182.989 0.819 181.432 A 30.138 30.138 0 0 1 0 180.224 Q 23.129 154.805 38.167 137.068 A 824.182 824.182 0 0 0 41.6 132.992 Q 57.344 114.176 71.168 96 Q 58.112 74.24 43.392 54.912 Q 28.672 35.584 11.008 16.64 Q 16.896 11.52 23.68 7.168 Q 30.464 2.816 37.376 0 Q 54.016 20.992 66.688 39.04 Q 79.36 57.088 89.856 74.24 Q 102.656 56.064 112.896 39.552 Q 123.136 23.04 132.096 6.4 Q 137.472 8.96 142.848 13.568 Q 148.224 18.176 151.808 23.552 Q 141.568 39.936 129.536 57.088 A 963.785 963.785 0 0 1 116.762 74.84 Q 109.913 84.146 102.135 94.319 A 1559.254 1559.254 0 0 1 101.632 94.976 Q 112.64 114.688 123.52 137.984 Q 134.4 161.28 147.456 193.024 Z" fill="#000000" fill-rule="nonzero" />
</svg>
